<?xml version="1.0" standalone="no"?>
<!DOCTYPE svg PUBLIC "-//W3C//DTD SVG 20010904//EN"
 "http://www.w3.org/TR/2001/REC-SVG-20010904/DTD/svg10.dtd">
<svg version="1.0" xmlns="http://www.w3.org/2000/svg"
 width="1228.000000pt" height="1228.000000pt" viewBox="0 0 1228.000000 1228.000000"
 preserveAspectRatio="xMidYMid meet">
<metadata>
Created by potrace 1.14, written by Peter Selinger 2001-2017
</metadata>
<g transform="translate(0.000000,1228.000000) scale(0.100000,-0.100000)"
fill="#000000" stroke="none">
<path d="M5585 12273 c-910 -79 -1827 -377 -2615 -851 -389 -233 -825 -569
-1099 -845 l-104 -105 32 -31 c18 -17 37 -29 42 -25 5 3 25 -4 44 -15 19 -11
35 -16 35 -11 0 6 18 10 40 10 22 0 40 -4 40 -10 0 -5 9 -10 20 -10 17 0 20
-7 20 -45 0 -34 5 -47 20 -55 22 -12 23 -11 20 57 -1 35 1 42 14 37 9 -3 16
-14 16 -23 0 -9 9 -33 19 -53 19 -34 19 -37 2 -52 -15 -14 -20 -14 -38 -1 -17
12 -26 12 -53 2 -26 -9 -34 -9 -37 1 -3 7 -21 12 -44 12 -32 0 -39 -3 -39 -20
0 -13 -7 -20 -20 -20 -14 0 -20 6 -18 16 6 35 -19 22 -32 -16 -11 -34 -17 -40
-42 -40 -25 0 -28 3 -28 35 0 19 -4 35 -10 35 -5 0 -10 -16 -10 -35 0 -19 5
-35 10 -35 6 0 10 -9 10 -20 0 -11 -4 -20 -10 -20 -5 0 -10 -11 -10 -24 0 -22
-3 -24 -39 -19 -32 4 -40 2 -44 -13 -4 -17 -5 -17 -6 -1 -1 13 -10 17 -36 17
-28 0 -35 4 -35 20 0 18 -7 20 -55 20 -41 0 -55 4 -55 14 0 8 6 17 13 19 8 4
8 6 0 6 -15 1 -255 -293 -242 -298 6 -2 16 2 22 8 6 6 32 11 59 11 38 0 46 3
42 15 -5 11 1 15 20 15 16 0 26 -6 26 -15 0 -9 9 -15 21 -15 21 0 21 3 15 67
-4 37 -12 71 -19 75 -6 4 -8 11 -3 15 5 4 11 2 13 -4 5 -15 63 -18 63 -3 0 6
6 10 14 10 9 0 12 -7 9 -19 -3 -11 2 -21 11 -24 11 -4 16 -1 16 12 0 10 7 22
16 25 15 6 15 4 3 -10 -11 -13 -11 -18 -1 -21 6 -3 12 -13 12 -23 0 -23 33
-35 60 -20 14 8 20 21 20 45 0 34 1 35 40 35 33 0 40 -3 40 -20 0 -17 7 -20
40 -20 33 0 40 3 40 20 0 16 7 20 34 20 31 0 34 -3 40 -37 8 -53 8 -71 -2 -55
-14 22 -48 -38 -51 -90 -3 -58 7 -97 20 -77 6 9 9 10 9 2 0 -6 -10 -20 -23
-30 -13 -10 -22 -25 -20 -33 4 -12 2 -12 -9 1 -14 16 -48 22 -48 7 0 -4 6 -8
14 -8 18 0 26 -21 27 -73 2 -41 2 -41 8 -9 6 33 6 33 24 12 18 -22 23 -85 7
-95 -7 -4 -7 -12 0 -25 13 -24 -14 -53 -45 -48 -16 3 -21 -1 -23 -16 -3 -40
-24 -66 -54 -66 -17 0 -28 -5 -28 -13 0 -18 -43 -37 -85 -37 -26 0 -35 4 -35
16 0 12 -6 15 -24 10 -14 -3 -28 -1 -31 4 -4 6 -11 8 -16 5 -5 -4 -9 -1 -9 4
0 13 21 14 36 4 5 -5 1 0 -10 10 -15 14 -21 15 -27 5 -7 -10 -14 -9 -36 4 -15
9 -45 16 -67 15 -25 -1 -42 5 -51 16 -7 9 -24 17 -39 17 -16 0 -25 4 -21 10 3
6 -1 10 -9 10 -9 0 -16 7 -16 15 0 8 -11 17 -25 21 -14 3 -25 9 -25 13 0 4
-18 17 -40 30 -22 12 -40 26 -40 30 0 4 -12 7 -27 7 -16 0 -34 3 -42 5 -38 11
-354 -522 -518 -875 -120 -260 -273 -658 -273 -713 0 -8 12 -13 30 -13 17 0
36 -5 43 -10 7 -6 22 -19 35 -29 14 -12 19 -22 12 -26 -17 -10 -11 -23 12 -27
13 -2 22 -11 23 -23 4 -41 17 -85 26 -85 5 0 9 -9 9 -19 0 -11 5 -23 10 -26 6
-3 10 -31 10 -62 0 -31 -3 -53 -6 -50 -4 3 -15 2 -25 -4 -24 -12 -27 -79 -4
-79 8 0 15 -5 15 -10 0 -7 6 -7 19 0 11 5 29 10 40 10 12 0 21 5 21 10 0 17
18 11 45 -16 l26 -26 -19 -31 c-10 -18 -20 -47 -21 -64 -1 -29 2 -33 23 -33
13 0 27 7 30 16 9 23 7 31 -4 14 -7 -12 -12 -12 -21 -3 -10 10 -9 14 4 19 23
8 40 -5 34 -27 -4 -16 0 -19 31 -19 26 0 33 3 23 9 -21 13 -6 40 26 46 15 4
38 11 51 16 37 15 76 11 94 -10 8 -10 21 -20 27 -22 13 -5 25 -139 12 -139 -5
0 -12 -14 -16 -30 -6 -28 -10 -30 -50 -30 l-44 0 15 -27 c7 -16 14 -34 14 -42
0 -11 3 -11 15 -1 8 6 19 9 25 5 19 -12 61 4 58 22 -2 9 3 18 10 20 6 3 12 -2
12 -11 0 -10 9 -16 24 -16 14 0 27 -4 31 -9 3 -6 22 -9 43 -8 49 2 131 -38
142 -69 6 -14 18 -24 30 -24 23 0 27 -15 5 -24 -8 -3 -15 0 -16 7 0 7 -5 2
-11 -10 -6 -13 -18 -23 -25 -23 -8 0 -17 -9 -20 -20 -3 -11 -12 -20 -20 -20
-8 0 -12 -4 -9 -9 3 -5 -4 -9 -17 -9 -12 -1 -31 -3 -42 -6 -11 -2 -23 -5 -27
-5 -10 -1 -10 -28 0 -34 4 -2 2 -3 -4 -1 -6 1 -17 -6 -25 -17 -7 -10 -23 -19
-34 -19 -12 0 -25 -4 -31 -9 -5 -5 -29 -12 -54 -15 -25 -3 -46 -5 -48 -5 -2
-1 -1 -5 2 -9 3 -5 -6 -15 -20 -22 -19 -11 -27 -11 -36 -2 -7 7 -20 12 -29 12
-10 0 -20 8 -22 18 -4 16 -5 16 -6 0 -1 -25 -21 -23 -21 2 0 11 -6 20 -13 20
-7 0 -23 8 -37 17 -15 10 -39 16 -64 14 -37 -2 -42 1 -54 27 -6 15 -21 38 -32
50 -11 12 -20 25 -20 30 0 6 -8 9 -17 8 -10 0 -19 7 -21 19 -2 11 -9 25 -16
30 -7 6 -16 20 -20 32 -4 12 -16 25 -27 28 -12 4 -19 15 -19 30 0 36 -21 75
-41 75 -9 0 -20 7 -23 16 -5 13 -15 15 -43 11 -20 -4 -44 -2 -53 3 -23 13 -33
50 -14 57 9 3 14 20 14 44 0 21 5 39 10 39 18 0 10 45 -10 58 -11 7 -20 23
-20 37 0 27 -25 44 -40 29 -13 -14 -77 -333 -105 -527 -48 -336 -58 -513 -52
-967 7 -507 29 -727 118 -1159 250 -1206 898 -2365 1789 -3199 560 -525 1141
-904 1831 -1195 1063 -449 2195 -588 3339 -411 1562 241 2989 1101 3950 2378
1141 1519 1515 3500 1005 5331 -338 1213 -1020 2265 -2000 3082 -928 774
-2081 1256 -3294 1378 -118 11 -265 15 -635 13 -265 -1 -499 -3 -521 -5z
m-3585 -2063 c0 -5 -13 -10 -30 -10 -23 0 -30 -5 -30 -19 0 -11 5 -21 10 -23
6 -2 1 -9 -10 -16 -18 -11 -20 -10 -20 18 0 17 6 37 13 45 14 16 67 20 67 5z
m-90 -52 c0 -5 -7 -16 -15 -24 -8 -9 -15 -25 -16 -37 -1 -18 -2 -17 -9 6 -5
16 -7 35 -4 43 14 47 14 47 29 34 8 -7 15 -17 15 -22z m585 -67 c3 -5 1 -12
-5 -16 -5 -3 -10 1 -10 9 0 18 6 21 15 7z m-858 -27 c-3 -3 -12 -4 -19 -1 -8
3 -5 6 6 6 11 1 17 -2 13 -5z m3 -34 c0 -11 -7 -20 -15 -20 -8 0 -15 9 -15 20
0 11 7 20 15 20 8 0 15 -9 15 -20z m27 -36 c-3 -3 -12 -4 -19 -1 -8 3 -5 6 6
6 11 1 17 -2 13 -5z m-319 -81 c-10 -2 -28 -2 -40 0 -13 2 -5 4 17 4 22 1 32
-1 23 -4z m409 -2690 c-3 -3 -13 -1 -21 4 -14 8 -14 11 2 33 l17 25 3 -28 c2
-16 1 -31 -1 -34z m83 -33 c0 -5 -18 -10 -40 -10 -22 0 -40 5 -40 10 0 6 18
10 40 10 22 0 40 -4 40 -10z m-755 -280 c16 0 17 -2 5 -10 -27 -17 -50 -12
-50 12 0 17 3 19 12 10 7 -7 21 -12 33 -12z m-468 -432 c-2 -13 -4 -3 -4 22 0
25 2 35 4 23 2 -13 2 -33 0 -45z m66 55 c-7 -2 -21 -2 -30 0 -10 3 -4 5 12 5
17 0 24 -2 18 -5z m8446 -2499 c8 -3 12 -14 9 -29 -5 -25 7 -36 14 -13 7 20
105 13 130 -8 21 -19 21 -19 7 4 -8 12 -21 22 -29 23 -11 0 -11 2 -2 6 7 3 19
-1 27 -7 12 -10 15 -9 15 4 0 25 15 19 30 -11 14 -30 16 -37 18 -68 2 -20 31
-37 83 -49 23 -5 27 -3 27 20 0 14 3 29 8 34 14 13 57 15 79 3 22 -12 146 -28
185 -25 28 3 110 -67 110 -93 0 -9 6 -12 15 -9 10 4 15 0 15 -15 0 -25 17 -28
22 -3 3 14 5 12 10 -6 6 -21 4 -23 -30 -20 -27 2 -41 -2 -53 -16 -12 -14 -28
-18 -66 -18 -41 1 -56 -3 -77 -23 -21 -20 -38 -25 -76 -25 -58 0 -80 -7 -80
-26 0 -8 -8 -14 -19 -14 -10 0 -47 -2 -82 -5 -47 -4 -58 -3 -41 4 22 10 31 31
12 31 -5 0 -10 -4 -10 -10 0 -5 -11 -10 -24 -10 -18 0 -27 8 -34 29 -15 43
-53 65 -99 56 -21 -4 -44 -11 -50 -17 -7 -6 -21 -7 -30 -3 -36 15 -83 15 -119
0 -46 -19 -50 -19 -33 2 12 15 12 16 -7 11 -18 -5 -22 1 -33 53 -13 66 -7 111
15 102 17 -6 19 8 3 24 -8 8 -5 13 11 18 23 7 43 46 34 69 -4 10 5 16 28 21
29 7 31 9 13 16 -20 9 45 2 74 -7z m-184 -104 c-3 -5 -17 -10 -31 -10 -13 0
-24 5 -24 10 0 6 14 10 31 10 17 0 28 -4 24 -10z m-38 -52 c-3 -8 -6 -5 -6 6
-1 11 2 17 5 13 3 -3 4 -12 1 -19z m-245 -118 c-12 -11 -24 -20 -27 -20 -3 0
-5 9 -5 20 0 15 7 20 27 20 l27 0 -22 -20z m-15 -52 c-3 -8 -6 -5 -6 6 -1 11
2 17 5 13 3 -3 4 -12 1 -19z m655 -92 c21 -23 23 -70 7 -144 -8 -41 -15 -51
-35 -55 -13 -2 -24 0 -24 4 0 5 -7 9 -16 9 -9 0 -38 21 -65 47 -48 46 -49 49
-49 105 0 45 3 58 15 58 18 0 19 -12 3 -28 -9 -9 -7 -12 10 -12 13 0 25 7 28
15 4 8 24 18 45 21 22 4 42 11 46 17 4 7 8 6 11 -3 3 -8 13 -23 24 -34z m-425
-114 c-9 -2 -14 -8 -11 -14 4 -7 2 -8 -5 -4 -9 6 -9 11 0 22 6 7 16 11 23 7 7
-5 5 -9 -7 -11z m585 -27 c20 -45 -25 -99 -88 -107 -25 -3 -29 0 -29 22 0 34
22 80 39 80 8 0 16 7 20 15 9 24 45 18 58 -10z m-6042 -62 c19 -7 47 -13 62
-13 34 0 46 -19 24 -36 -11 -7 -16 -22 -14 -40 3 -26 0 -29 -29 -30 -18 0 -36
-3 -39 -7 -4 -4 -27 -7 -51 -7 -32 0 -43 4 -43 15 0 9 -6 18 -13 21 -22 8 0
99 27 112 11 5 26 7 31 3 6 -3 26 -11 45 -18z m267 -9 c32 -9 52 -20 50 -27
-6 -16 -45 -11 -64 8 -10 11 -25 14 -49 9 -35 -6 -50 10 -16 19 9 3 19 5 20 6
2 0 28 -6 59 -15z m6207 7 c11 -16 -5 -40 -40 -60 -28 -17 -34 -26 -34 -53 0
-25 -3 -29 -12 -20 -7 7 -13 23 -13 35 -1 13 -5 29 -9 36 -10 15 9 31 38 31
12 0 16 5 13 14 -4 10 2 16 16 19 12 2 25 5 29 6 4 0 9 -3 12 -8z m-6166 -67
c7 -2 10 -8 7 -14 -3 -5 0 -10 7 -10 21 -1 60 -38 53 -51 -7 -11 -37 -9 -99 7
-28 7 -29 6 -22 -22 9 -34 17 -44 23 -27 9 24 58 -7 88 -57 26 -43 101 -117
115 -114 3 1 13 -7 23 -17 9 -11 13 -19 7 -19 -16 0 -12 -50 5 -56 8 -4 12
-10 9 -15 -3 -5 2 -9 10 -9 19 0 19 -4 7 -48 -8 -25 -7 -32 4 -32 7 0 16 14
20 30 6 28 25 43 25 20 0 -5 10 -10 23 -10 13 0 28 -5 34 -11 14 -14 53 -2 53
16 0 8 17 22 38 31 20 10 41 20 46 22 5 3 6 0 2 -6 -5 -8 6 -12 36 -13 98 -3
148 -8 164 -17 9 -5 45 -7 80 -4 80 6 93 -12 45 -62 -17 -17 -31 -37 -31 -43
0 -6 -9 -13 -20 -16 -12 -3 -20 -14 -20 -25 0 -24 16 -37 25 -21 4 5 13 8 21
5 7 -3 20 2 29 10 19 20 45 11 45 -15 0 -14 -10 -21 -37 -27 -21 -4 -44 -8
-50 -7 -7 0 -13 -5 -13 -13 0 -8 -8 -14 -17 -14 -14 0 -15 2 -4 9 7 5 10 14 6
21 -8 13 -36 -12 -48 -44 -11 -28 -89 -136 -98 -136 -5 0 -8 -5 -6 -12 4 -20
-49 -33 -78 -20 -15 7 -23 17 -19 23 4 8 -32 9 -125 6 -79 -3 -129 -2 -126 4
4 5 2 9 -4 9 -5 0 -13 10 -17 23 -4 12 -15 29 -25 38 -14 12 -16 18 -6 28 9 9
9 14 -3 21 -13 8 -12 11 5 24 19 14 19 15 -5 87 -14 41 -25 85 -25 99 0 17 -6
26 -20 28 -24 5 -60 41 -60 61 0 37 -96 72 -123 44 -24 -24 -47 -11 -50 27 -2
19 -8 40 -15 45 -7 6 -21 20 -31 33 -18 20 -18 23 -3 40 22 24 35 126 16 120
-8 -2 -15 -14 -17 -26 -5 -31 -57 -31 -65 -1 -6 22 12 45 58 75 20 13 23 19
13 26 -8 6 -1 7 20 3 19 -4 32 -3 32 4 0 9 53 6 88 -5z m-188 -8 c0 -3 -4 -8
-10 -11 -5 -3 -10 -1 -10 4 0 6 5 11 10 11 6 0 10 -2 10 -4z m1120 -521 c0 -8
-4 -15 -10 -15 -5 0 -10 7 -10 15 0 8 5 15 10 15 6 0 10 -7 10 -15z m-103 -11
c-3 -3 -12 -4 -19 -1 -8 3 -5 6 6 6 11 1 17 -2 13 -5z m132 -81 c10 -35 6 -43
-21 -43 -10 0 -27 -6 -38 -12 -15 -10 -22 -10 -32 0 -26 26 48 117 75 93 4 -4
11 -21 16 -38z m112 -90 c-12 -20 -14 -14 -5 12 4 9 9 14 11 11 3 -2 0 -13 -6
-23z m118 -242 c26 -24 30 -35 25 -56 -4 -18 -2 -30 7 -36 10 -6 11 -9 2 -9
-18 0 -16 -19 2 -27 25 -9 85 -65 85 -79 0 -6 9 -14 21 -17 11 -3 19 -11 17
-19 -2 -7 8 -28 21 -47 27 -38 22 -58 -20 -77 -23 -11 -40 -10 -187 15 -2 1
-1 5 2 9 2 4 -10 27 -28 49 l-33 42 -2 127 c-2 131 4 154 39 154 10 0 32 -13
49 -29z m274 -178 c-7 -2 -19 -2 -25 0 -7 3 -2 5 12 5 14 0 19 -2 13 -5z m53
-218 c4 -8 12 -15 20 -15 9 0 14 -11 14 -28 0 -15 5 -33 11 -39 7 -7 6 -12 -5
-16 -10 -4 -16 -1 -16 7 0 7 -13 23 -30 36 -16 13 -30 31 -30 40 0 31 26 42
36 15z m-46 -79 c0 -8 3 -16 8 -19 4 -2 1 -2 -7 0 -8 2 -18 -2 -23 -9 -5 -9
-8 -7 -8 8 0 11 3 24 7 27 11 12 23 8 23 -7z m-2368 -236 c9 0 9 -3 -2 -10
-11 -7 -11 -10 -2 -10 30 0 0 -18 -39 -23 -24 -3 -46 -13 -51 -21 -5 -9 -14
-14 -19 -10 -6 3 -17 -2 -24 -12 -13 -17 -14 -17 -15 -2 0 9 5 20 10 23 6 3
10 26 10 50 l0 44 53 3 c42 2 53 0 59 -14 4 -10 13 -18 20 -18z m550 -273 c12
-22 -8 -80 -26 -74 -6 3 -10 10 -8 17 1 6 -2 27 -7 45 -8 30 -7 33 11 32 11
-1 24 -10 30 -20z m-309 -287 c-3 -11 -9 -20 -13 -20 -5 0 -6 9 -3 20 3 11 9
20 13 20 5 0 6 -9 3 -20z m737 -150 c0 -5 -2 -10 -4 -10 -3 0 -8 5 -11 10 -3
6 -1 10 4 10 6 0 11 -4 11 -10z m40 -20 c0 -5 -5 -10 -11 -10 -5 0 -7 5 -4 10
3 6 8 10 11 10 2 0 4 -4 4 -10z m-35 -100 c-3 -5 3 -10 14 -10 21 0 27 -26 22
-82 -2 -20 31 -44 74 -54 39 -9 55 -22 55 -45 0 -15 7 -19 31 -19 27 0 30 -3
23 -22 -8 -26 -26 -41 -34 -28 -18 29 -110 16 -110 -16 0 -9 -16 -33 -36 -52
-29 -28 -38 -32 -45 -21 -5 8 -9 20 -9 28 0 8 -7 11 -20 8 -11 -3 -20 -2 -20
2 0 4 -15 5 -34 3 -40 -5 -47 4 -52 70 -3 35 -1 47 7 42 7 -4 9 0 5 14 -5 15
-2 20 11 18 15 -1 18 7 18 42 0 23 5 46 12 50 6 4 14 24 18 45 7 34 10 37 42
37 20 0 32 -4 28 -10z"/>
<path d="M9450 3740 c20 -13 33 -13 25 0 -3 6 -14 10 -23 10 -15 0 -15 -2 -2
-10z"/>
<path d="M9420 3676 c0 -2 7 -7 16 -10 8 -3 12 -2 9 4 -6 10 -25 14 -25 6z"/>
<path d="M3880 3030 c0 -5 7 -10 15 -10 8 0 15 5 15 10 0 6 -7 10 -15 10 -8 0
-15 -4 -15 -10z"/>
<path d="M3768 3023 c7 -3 16 -2 19 1 4 3 -2 6 -13 5 -11 0 -14 -3 -6 -6z"/>
<path d="M4435 2890 c-3 -5 -1 -10 4 -10 6 0 11 5 11 10 0 6 -2 10 -4 10 -3 0
-8 -4 -11 -10z"/>
<path d="M4378 2833 c7 -3 16 -2 19 1 4 3 -2 6 -13 5 -11 0 -14 -3 -6 -6z"/>
<path d="M1840 10334 c0 -8 5 -12 10 -9 6 4 8 11 5 16 -9 14 -15 11 -15 -7z"/>
<path d="M1860 10280 c0 -5 5 -10 10 -10 6 0 10 5 10 10 0 6 -4 10 -10 10 -5
0 -10 -4 -10 -10z"/>
<path d="M1740 9888 c0 -4 5 -8 10 -8 6 0 10 -7 10 -16 0 -11 8 -14 33 -12 24
2 33 8 35 25 3 19 -1 21 -42 21 -25 -1 -46 -5 -46 -10z"/>
<path d="M1745 9830 c-3 -6 -19 -10 -36 -10 -16 0 -29 -5 -29 -10 0 -17 24
-22 53 -11 18 7 27 7 29 -1 3 -8 6 -7 10 3 7 17 -18 44 -27 29z"/>
<path d="M1653 9803 c-21 -7 -15 -33 7 -33 11 0 20 6 20 14 0 18 -11 25 -27
19z"/>
<path d="M239 7833 c-9 -2 -20 -23 -27 -51 -6 -26 -14 -55 -17 -64 -4 -10 -3
-18 3 -18 6 0 15 13 20 29 9 25 17 30 49 33 26 2 38 8 37 18 -5 54 -20 66 -65
53z"/>
<path d="M593 6984 c-7 -3 -9 -12 -6 -20 8 -21 22 -17 20 6 -1 11 -1 20 -2 19
0 0 -5 -3 -12 -5z"/>
<path d="M950 6931 c0 -5 9 -7 20 -4 11 3 20 7 20 9 0 2 -9 4 -20 4 -11 0 -20
-4 -20 -9z"/>
</g>
</svg>
